<?xml version="1.0" encoding="UTF-8"?>
<svg xmlns="http://www.w3.org/2000/svg" width="48" height="49" viewBox="0 0 528 851" fill="none">
  <g clip-path="url(#clip0_2447_4927)">
    <path d="M264 0V378.681C247.309 383.637 235.139 399.076 235.139 417.374C235.139 439.7 253.228 457.782 275.534 457.782C297.84 457.782 315.929 439.7 315.929 417.374C315.929 399.076 303.759 383.637 287.068 378.681V170.223C356.438 241.839 419.087 264.089 419.087 264.089V586.911C419.087 586.911 341.906 614.32 264.013 706.204C241.389 679.519 209.671 660.954 175.996 648.057L175.107 352.492C191.48 347.346 203.37 332.059 203.37 313.952C203.37 291.638 185.281 273.569 162.976 273.569C140.67 273.569 122.581 291.651 122.581 313.952C122.581 332.796 135.474 348.629 152.915 353.089V640.115C77.1561 616.836 0 618.615 0 618.615V636.697C181.775 709.571 264.013 851 264.013 851C264.013 851 345.907 710.143 526.92 637.141C527.276 636.989 527.644 636.849 528 636.697V214.316C346.224 141.442 264.013 0.0126418 264.013 0.0126418L264 0ZM295.414 417.361C295.414 428.34 286.509 437.248 275.534 437.248C264.559 437.248 255.654 428.34 255.654 417.361C255.654 406.382 264.559 397.5 275.534 397.5C286.509 397.5 295.414 406.408 295.414 417.361ZM143.083 313.939C143.083 302.973 151.988 294.078 162.963 294.078C173.938 294.078 182.842 302.986 182.842 313.939C182.842 324.892 173.938 333.825 162.963 333.825C151.988 333.825 143.083 324.918 143.083 313.939Z" fill="white"/>
  </g>
</svg>
